<svg preserveAspectRatio="xMidYMid meet" data-bbox="0 0.98 648.438 146.973" xmlns="http://www.w3.org/2000/svg" viewBox="0 0.98 648.438 146.973" height="148" width="649" data-type="color" role="presentation" aria-hidden="true" aria-label="">
    <g>
        <path fill="#073250" d="m103.027 146-7.03-26.758H49.608L42.383 146H0L46.582 2.64h51.465L145.215 146h-42.188ZM87.988 87.602l-6.152-23.438c-1.432-5.208-3.19-11.947-5.273-20.215-2.019-8.268-3.353-14.192-4.004-17.773-.586 3.32-1.758 8.789-3.516 16.406-1.693 7.617-5.501 22.624-11.426 45.02h30.371ZM282.715 146H239.16l-28.222-54.59-11.426 6.836V146h-38.77V3.227h38.77v62.011c1.953-3.84 5.892-9.928 11.816-18.261l29.981-43.75h42.187L238.477 67.19 282.715 146Zm15.527 0V3.227h38.77V146h-38.77ZM489.16 71.586c0 23.828-6.575 42.187-19.726 55.078C456.348 139.555 437.923 146 414.16 146h-46.191V3.227h49.414c22.916 0 40.592 5.859 53.027 17.578 12.5 11.718 18.75 28.645 18.75 50.78Zm-40.039 1.367c0-13.086-2.604-22.786-7.812-29.101-5.144-6.316-12.989-9.473-23.536-9.473h-11.23v79.98h8.594c11.718 0 20.312-3.385 25.781-10.156 5.469-6.836 8.203-17.252 8.203-31.25Zm199.317 1.465c0 24.023-5.892 42.285-17.676 54.785-11.784 12.5-29.037 18.75-51.758 18.75-22.396 0-39.583-6.282-51.563-18.848-11.914-12.565-17.871-30.859-17.871-54.882 0-23.763 5.925-41.895 17.774-54.395C539.258 7.263 556.543.98 579.199.98c22.722 0 39.942 6.218 51.66 18.653 11.719 12.435 17.579 30.696 17.579 54.785Zm-98.243 0c0 27.604 9.603 41.406 28.809 41.406 9.766 0 16.992-3.353 21.68-10.058 4.752-6.706 7.128-17.155 7.128-31.348 0-14.258-2.408-24.772-7.226-31.543-4.753-6.836-11.882-10.254-21.387-10.254-19.336 0-29.004 13.932-29.004 41.797Z" data-color="1"></path>
    </g>
</svg>