<svg xmlns="http://www.w3.org/2000/svg" xmlns:xlink="http://www.w3.org/1999/xlink" viewBox="0 0 359.95 110.67"><defs><style>.a{fill:#899396;}.b{fill:url(#a);}</style><linearGradient id="a" x1="55.33" y1="110.67" x2="55.33" gradientUnits="userSpaceOnUse"><stop offset="0" stop-color="#70ba44"/><stop offset="1" stop-color="#afd136"/></linearGradient></defs><path class="a" d="M345.76,72.09c-3.94-.19-6.26-1-8.24-3-1.51-1.74-2.37-4.83-2.37-8.47V40.38h9.94a.88.88,0,0,0,.86-.87h0V29.79a.88.88,0,0,0-.85-.88h-10V15.63a.86.86,0,0,0-.86-.87H321.48a.86.86,0,0,0-.86.86h0v45c0,7.94,2.35,13.81,7.19,17.92,3.7,3.26,9.61,5.06,16.64,5.06l1.29,0a.87.87,0,0,0,.83-.87V73a.85.85,0,0,0-.81-.87"/><path class="a" d="M200.45,71.9h-.64c-3.64,0-6-.81-7.54-2.56s-2.3-4.83-2.3-9.09V6.79a.86.86,0,0,0-.86-.87H176.29a.86.86,0,0,0-.85.87V60.35c0,8.31,2.32,14.37,7.08,18.49,3.44,3,8.82,4.73,15.15,4.73.94,0,1.9,0,2.87-.11a.87.87,0,0,0,.79-.87V72.77a.87.87,0,0,0-.26-.62.93.93,0,0,0-.62-.25"/><path class="a" d="M143.65,27.47c-17.52,0-25.36,14.2-25.36,28.29S126.21,84,143.92,84c8.05,0,15.38-2.87,20.13-7.86a.88.88,0,0,0,.07-1.12L159,68a.84.84,0,0,0-1.18-.19h0c-4.15,3-8.54,4.67-12.7,4.67-.35,0-.7,0-1.07,0-6-.18-10-4.23-11.24-11.43h33.82a.86.86,0,0,0,.84-.74,40.91,40.91,0,0,0,.48-6.25c0-16.61-9.08-26.52-24.29-26.52M132.76,51.81c.6-8.13,4.66-12.8,11.19-12.8,7.18,0,10.38,3.73,10.38,12.07,0,.24,0,.49,0,.73Z"/><path class="a" d="M235.93,27.47c-6,0-10.29,2.7-13.9,5.91l-.2-3.73a.86.86,0,0,0-.85-.82H209.47a.86.86,0,0,0-.86.87V82a.86.86,0,0,0,.86.86h12.81a.87.87,0,0,0,.86-.86v-36c4.67-5.39,6.75-6.27,9.84-6.27,4.3,0,8.9,3,8.9,11.3V82a.85.85,0,0,0,.85.86h12.82a.85.85,0,0,0,.85-.86V48.3c0-13.68-10.29-20.83-20.47-20.83"/><path class="a" d="M289,27.47c-17.52,0-25.36,14.2-25.36,28.29S271.61,84,289.32,84c8.05,0,15.38-2.87,20.13-7.86a.89.89,0,0,0,.06-1.12l-5.11-7a.84.84,0,0,0-1.18-.19h0c-4.16,3-8.55,4.67-12.7,4.67-.35,0-.71,0-1.08,0-6-.18-10-4.23-11.24-11.43H312a.87.87,0,0,0,.84-.74,42.22,42.22,0,0,0,.48-6.25c0-16.61-9.09-26.52-24.3-26.52M278.15,51.81c.6-8.13,4.67-12.8,11.19-12.8,7.18,0,10.39,3.73,10.39,12.07,0,.24,0,.49,0,.73Z"/><path class="a" d="M350.34,77.82a4.92,4.92,0,0,1,.38-1.9,5,5,0,0,1,2.56-2.61,4.79,4.79,0,0,1,3.74,0,4.93,4.93,0,0,1,2.55,2.61,4.94,4.94,0,0,1,0,3.8,4.91,4.91,0,0,1-2.55,2.6,4.68,4.68,0,0,1-3.74,0,5,5,0,0,1-1.52-1,5.09,5.09,0,0,1-1-1.55,5,5,0,0,1-.38-1.9m.7,0a4.15,4.15,0,0,0,1.2,3,4.2,4.2,0,0,0,1.31.9,4,4,0,0,0,3.2,0,4.21,4.21,0,0,0,2.51-3.85A4.15,4.15,0,0,0,356.75,74a4,4,0,0,0-3.2,0,4.06,4.06,0,0,0-1.31.89,4.19,4.19,0,0,0-1.2,3m3.06,2.8h-.69V75h2.13a1.84,1.84,0,0,1,1.34.4,1.55,1.55,0,0,1,.4,1.16,1.77,1.77,0,0,1-.11.68,1.41,1.41,0,0,1-.3.46,1.37,1.37,0,0,1-.45.3,2.52,2.52,0,0,1-.53.17l1.65,2.47h-.79l-1.65-2.47h-1Zm0-3.1H355a5.3,5.3,0,0,0,.57,0,1.26,1.26,0,0,0,.51-.11.89.89,0,0,0,.37-.29.84.84,0,0,0,.14-.55.79.79,0,0,0-.11-.45.75.75,0,0,0-.28-.28,1.24,1.24,0,0,0-.4-.16,3.42,3.42,0,0,0-.45,0H354.1Z"/><path class="a" d="M58.76,27.56c-6,0-10.29,2.71-13.9,5.91l-.2-3.72a.87.87,0,0,0-.85-.83H32.3a.88.88,0,0,0-.86.87V82.06a.87.87,0,0,0,.86.87H45.11a.88.88,0,0,0,.86-.87V46c4.67-5.38,6.75-6.26,9.84-6.26,4.3,0,8.89,3,8.89,11.3v31a.87.87,0,0,0,.86.87H78.38a.87.87,0,0,0,.85-.87V48.39c0-13.67-10.3-20.83-20.47-20.83"/><path class="b" d="M11.4,55.33A43.94,43.94,0,1,1,55.34,99.27,44,44,0,0,1,11.4,55.33M55.34,0a55.34,55.34,0,1,0,55.33,55.33A55.39,55.39,0,0,0,55.34,0Z"/></svg>